Coordinates
version=1
nRows=12
nColumns=33
inDegrees=yes

Units are S.I. units (second, meters, Newtons, ...)
Angles are in degrees.

endheader
time	ground_thorax_rot_x	ground_thorax_rot_y	ground_thorax_rot_z	ground_thorax_tx	ground_thorax_ty	ground_thorax_tz	clav_prot_r	clav_elev_r	scapula_abduction_r	scapula_elevation_r	scapula_upward_rot_r	scapula_winging_r	shoulder_elv_r	plane_of_elev_r	axial_rot_r	elbow_flexion_r	pro_sup_r	wrist_flex_r	wrist_dev_r	clav_prot_l	clav_elev_l	scapula_abduction_l	scapula_elevation_l	scapula_upward_rot_l	scapula_winging_l	shoulder_elv_l	plane_of_elev_l	axial_rot_l	elbow_flexion_l	pro_sup_l	wrist_flex_l	wrist_dev_l
      7.93000000	     31.68841507	     22.89771828	     31.28654257	   -104.01297890	    842.31906107	    -40.25828384	     11.64233255	     34.09057059	     24.35770828	     45.00000000	    -45.00000000	  -3686.36365446	  -2445.34791771	     23.63169698	    179.99999979	   1805.60438842	   -175.02345702	     17.01242250	     14.16238068	     -7.21858284	    -45.00000000	    -40.02404068	     45.00000000	    -45.00000000	  -1694.86020241	  -1361.06756353	     24.40157610	     22.95999900	   1789.81734691	     40.93398566	     13.42529289	    -20.06831790
      7.94000000	     31.71273343	     22.78608153	     31.17052477	   -105.31590478	    843.86996083	    -40.54309990	     11.64740390	     33.99706979	     24.23025053	     45.00000000	    -45.00000000	  -3686.42915573	  -2445.26696768	     23.64298970	    179.99999979	   1805.54224831	   -175.28139564	     17.03303865	     14.17476484	     -7.05280719	    -45.00000000	    -40.12883091	     45.00000000	    -45.00000000	  -1694.76562249	  -1360.98955549	     24.39755616	     22.88904278	   1789.84795103	     40.73681689	     13.39462582	    -20.12567989
      7.95000000	     31.74718347	     22.65973342	     31.05390909	   -106.53997373	    845.35048027	    -40.82209408	     11.62545927	     33.97153849	     24.16929796	     45.00000000	    -45.00000000	  -3686.52588194	  -2445.23509359	     23.66706814	    179.99999979	   1805.50569973	   -175.57577862	     17.04295081	     14.19038759	     -6.92679438	    -45.00000000	    -40.22256363	     45.00000000	    -45.00000000	  -1694.64909489	  -1360.93807389	     24.40336074	     22.82292699	   1789.86761757	     40.54228085	     13.36271901	    -20.20648733
      7.96000000	     31.84188411	     22.44045154	     30.87301033	   -107.68153775	    846.75802936	    -41.08531215	     11.56854396	     33.99643475	     24.24643787	     45.00000000	    -45.00000000	  -3686.63512760	  -2445.26999312	     23.70274138	    179.99999979	   1805.51011490	   -175.87638253	     17.03435794	     14.23650590	     -6.84462548	    -45.00000000	    -40.26988095	     45.00000000	    -45.00000000	  -1694.53419702	  -1360.91776218	     24.44491251	     22.79746664	   1789.84261772	     40.38200322	     13.36294535	    -20.34022711
      7.97000000	     31.89804072	     22.32337153	     30.71537898	   -108.74537811	    848.09624171	    -41.32647825	     11.53992935	     33.93594540	     24.15037395	     45.00000000	    -45.00000000	  -3686.68344926	  -2445.22846651	     23.74437552	    179.99999979	   1805.47422361	   -176.21303525	     17.00739987	     14.26739783	     -6.64709562	    -45.00000000	    -40.39773069	     45.00000000	    -45.00000000	  -1694.38577194	  -1360.92511297	     24.46692301	     22.76177985	   1789.85294905	     40.25520684	     13.33764319	    -20.43405606
      7.98000000	     32.08893062	     22.07947430	     30.33196589	   -109.72680059	    849.35473770	    -41.54060110	     11.53774267	     33.93695476	     24.09679183	     45.00000000	    -45.00000000	  -3686.83871247	  -2445.23264100	     23.89846669	    179.99999979	   1805.31971421	   -176.56531005	     17.01160041	     14.32864170	     -6.62203571	    -45.00000000	    -40.32365607	     45.00000000	    -45.00000000	  -1694.44512637	  -1360.94124595	     24.59167001	     22.67356968	   1789.83154096	     40.16225832	     13.33973838	    -20.59766522
      7.99000000	     31.87187133	     22.23133759	     30.59823165	   -110.63466374	    850.53240430	    -41.72817455	     11.54593660	     33.88263640	     24.04671939	     45.00000000	    -45.00000000	  -3686.90050048	  -2445.24704830	     23.69445011	    179.99999979	   1805.32850173	   -176.97335153	     16.95483732	     14.27837100	     -6.51502416	    -45.00000000	    -40.67988358	     45.00000000	    -45.00000000	  -1694.21250771	  -1360.88599435	     24.51066061	     22.65715501	   1789.89014115	     40.09940311	     13.26047829	    -20.62732839
      8.00000000	     31.98812029	     22.01466680	     30.44971635	   -111.47110460	    851.62750726	    -41.89412029	     11.45652743	     33.85170122	     24.08435567	     45.00000000	    -45.00000000	  -3686.92524127	  -2445.22897711	     23.73699820	    179.99999979	   1805.26454835	   -177.42990593	     16.91090962	     14.33500645	     -6.36088072	    -45.00000000	    -40.53891018	     45.00000000	    -45.00000000	  -1694.20785395	  -1360.82156631	     24.41579862	     22.48004770	   1789.90036918	     40.05355481	     13.22540233	    -20.76052680
      8.01000000	     32.12286505	     21.88133222	     30.11104699	   -112.24032937	    852.64171354	    -42.04585505	     11.52063665	     33.83201590	     23.89667544	     45.00000000	    -45.00000000	  -3687.03351811	  -2445.22987229	     23.93900366	    179.99999979	   1805.11089425	   -177.84835413	     16.88548491	     14.38736998	     -6.33294977	    -45.00000000	    -40.67581691	     45.00000000	    -45.00000000	  -1694.09958065	  -1360.99009568	     24.59436925	     22.48287405	   1789.90079000	     40.03446174	     13.21593969	    -20.93527763
      8.02000000	     32.01589914	     21.94776285	     30.35163168	   -112.93380912	    853.56757838	    -42.19002921	     11.42416161	     33.79651019	     24.06641256	     45.00000000	    -45.00000000	  -3687.06620511	  -2445.28560330	     23.65226135	    179.99999979	   1805.06939096	   -178.27811892	     16.87629024	     14.37472452	     -6.21651666	    -45.00000000	    -40.54034433	     45.00000000	    -45.00000000	  -1694.09228321	  -1360.70520507	     24.39359072	     22.33626466	   1789.88138080	     40.02988976	     13.07754052	    -20.91662356
      8.03000000	     32.08646786	     21.80801181	     30.13881077	   -113.55587956	    854.40767981	    -42.33216945	     11.46408036	     33.78291581	     23.90545061	     45.00000000	    -45.00000000	  -3687.09051438	  -2445.28282785	     23.86154124	    179.99999979	   1805.01801149	   -178.68177420	     16.82369331	     14.42275536	     -6.19488137	    -45.00000000	    -40.80069122	     45.00000000	    -45.00000000	  -1693.88759986	  -1360.90447937	     24.44712160	     22.24390804	   1789.88179660	     40.03500453	     13.11453362	    -21.12797342
      8.04000000	     32.13946522	     21.72816148	     30.03695656	   -114.10316497	    855.16128061	    -42.47515107	     11.42312657	     33.71407030	     23.87772396	     45.00000000	    -45.00000000	  -3687.15456078	  -2445.27796835	     23.81494445	    179.99999979	   1804.79984277	   -179.04085289	     16.91332656	     14.46264707	     -6.05826523	    -45.00000000	    -40.55988041	     45.00000000	    -45.00000000	  -1694.03044140	  -1360.81197264	     24.39503986	     22.08245279	   1789.92838010	     40.02402895	     12.89404804	    -21.13367595
